<!DOCTYPE svg PUBLIC "-//W3C//DTD SVG 1.1//EN" "http://www.w3.org/Graphics/SVG/1.1/DTD/svg11.dtd">
<!-- Uploaded to: SVG Repo, www.svgrepo.com, Transformed by: SVG Repo Mixer Tools -->
<svg fill="red" width="256px" height="256px" viewBox="-3.2 -3.2 38.40 38.40" version="1.1" xmlns="http://www.w3.org/2000/svg" stroke="red" transform="rotate(0)" stroke-width="0.00032">
<g id="SVGRepo_bgCarrier" stroke-width="0">
<path transform="translate(-3.2, -3.2), scale(1.2)" d="M16,29.778382753332455C17.873160810112843,29.50489695781697,19.589573722425467,28.709457825195273,21.27403886188968,27.845685230804158C22.901142805236002,27.011326738270846,24.45350053761797,26.068418147895954,25.74983414899651,24.778790098989646C27.08310908752275,23.452411809840132,28.159488239240364,21.913985373951107,28.951302957989597,20.208133422930324C29.79556836009557,18.3892839506235,31.081406530383997,16.401456109047114,30.533790965161316,14.472437015095524C29.96513071786201,12.469286365852149,27.23868245747816,11.912230663095102,26.101114360837666,10.16811890465518C25.04056071840228,8.542085189670985,25.31303041944643,6.315239650359991,24.18355669436835,4.7363005207205635C22.92639777266001,2.978864849940897,21.304380844915052,1.3449541631480737,19.269548478240495,0.6179837848703436C17.19615533119568,-0.12276293466849197,14.598551641205507,-0.5282968294677963,12.736557670726416,0.6467109571529797C10.719795478083054,1.9193849387495003,11.305497392724197,5.481518561374408,9.365261270280701,6.868065565364475C7.401976576256825,8.27108372330398,3.5873822389745316,6.048760314862301,2.3113513370360543,8.096855009595545C1.061012369604374,10.103712838763176,4.641350740099004,12.428967322327308,4.433197183477446,14.784280035500515C4.230064507765711,17.08278014921507,0.3523600678678237,18.661852165290615,1.1875598733241706,20.81285354642762C2.051455697837267,23.03775961027761,6.079589966044966,21.726389522967402,7.779301988752836,23.401949736278148C9.33466115715041,24.93520825604975,8.266870422380025,28.154211396449487,9.992619051870374,29.49279852435069C11.59417704896636,30.735056453961818,13.994395955836387,30.07120556627296,16,29.778382753332455" fill="#7ed0ec" strokewidth="0"/>
</g>
<g id="SVGRepo_tracerCarrier" stroke-linecap="round" stroke-linejoin="round" stroke="#CCCCCC" stroke-width="0.064"/>
<g id="SVGRepo_iconCarrier"> <title>rainbow</title> <path d="M16 7.75c-0.146-0.005-0.319-0.008-0.491-0.008-8.155 0-14.767 6.611-14.767 14.767 0 0.173 0.003 0.345 0.009 0.516l-0.001-0.025c0 0.69 0.56 1.25 1.25 1.25s1.25-0.56 1.25-1.25v0c-0.008-0.162-0.012-0.352-0.012-0.542 0-6.749 5.471-12.22 12.22-12.22 0.191 0 0.38 0.004 0.569 0.013l-0.027-0.001c0.162-0.008 0.352-0.012 0.542-0.012 6.749 0 12.22 5.471 12.22 12.22 0 0.191-0.004 0.38-0.013 0.569l0.001-0.027c0 0.69 0.56 1.25 1.25 1.25s1.25-0.56 1.25-1.25v0c0.005-0.146 0.008-0.319 0.008-0.491 0-8.155-6.611-14.767-14.767-14.767-0.173 0-0.345 0.003-0.516 0.009l0.025-0.001zM16 11.75c-0.108-0.004-0.235-0.006-0.363-0.006-6.016 0-10.893 4.877-10.893 10.893 0 0.128 0.002 0.255 0.007 0.381l-0-0.018c0 0.69 0.56 1.25 1.25 1.25s1.25-0.56 1.25-1.25v0c-0.005-0.111-0.008-0.241-0.008-0.372 0-4.632 3.755-8.387 8.387-8.387 0.131 0 0.261 0.003 0.39 0.009l-0.018-0.001c0.043-0.001 0.094-0.001 0.146-0.001 2.259 0 4.325 0.827 5.911 2.196l-0.012-0.010c1.671 1.553 2.712 3.763 2.712 6.217 0 0.123-0.003 0.245-0.008 0.366l0.001-0.017c0 0.69 0.56 1.25 1.25 1.25s1.25-0.56 1.25-1.25v0c0.004-0.108 0.006-0.235 0.006-0.362 0-6.017-4.877-10.894-10.894-10.894-0.127 0-0.254 0.002-0.38 0.007l0.018-0.001zM16 15.75c-0.070-0.002-0.151-0.004-0.234-0.004-3.877 0-7.020 3.143-7.020 7.020 0 0.082 0.001 0.164 0.004 0.245l-0-0.012c0 0.69 0.56 1.25 1.25 1.25s1.25-0.56 1.25-1.25v0c0-5.037 5.579-5.756 8.045-3.566 0.899 0.843 1.459 2.039 1.459 3.365 0 0.071-0.002 0.141-0.005 0.211l0-0.010c0 0.69 0.56 1.25 1.25 1.25s1.25-0.56 1.25-1.25v0c0.003-0.070 0.004-0.152 0.004-0.234 0-3.877-3.143-7.020-7.020-7.020-0.082 0-0.164 0.001-0.246 0.004l0.012-0zM12.75 23c0 0.69 0.56 1.25 1.25 1.25s1.25-0.56 1.25-1.25v0c0-0.414 0.336-0.75 0.75-0.75s0.75 0.336 0.75 0.75v0c0 0.69 0.56 1.25 1.25 1.25s1.25-0.56 1.25-1.25v0c-0.047-1.759-1.484-3.167-3.25-3.167s-3.203 1.408-3.25 3.163l-0 0.004z"/> </g>
</svg>